<?xml version="1.0" encoding="utf-8"?>
<!-- Generator: Adobe Illustrator 16.0.0, SVG Export Plug-In . SVG Version: 6.00 Build 0)  -->
<!DOCTYPE svg PUBLIC "-//W3C//DTD SVG 1.1//EN" "http://www.w3.org/Graphics/SVG/1.1/DTD/svg11.dtd">
<svg version="1.1" id="Layer_1" xmlns="http://www.w3.org/2000/svg" xmlns:xlink="http://www.w3.org/1999/xlink" x="0px" y="0px"
	 width="229.211px" height="78.817px" viewBox="0 0 229.211 78.817" enable-background="new 0 0 229.211 78.817"
	 xml:space="preserve">
<g>
	<g>
		<g>
			<path fill-rule="evenodd" clip-rule="evenodd" fill="#EF1821" d="M163.777,19.021c0.586-2.051,0.364-3.443-0.587-4.104
				c-0.732-0.584-2.05-0.584-3.882,0c-4.028,1.686-8.132,5.349-12.309,10.917c-5.713,8.059-9.961,15.97-12.743,23.734l-0.295,0.44
				c-0.732,0.365-1.688,0.511-2.563,0.365c-0.22-0.146-0.292-0.292-0.292-0.514l1.098-4.247c0.292-1.759,0.07-3.223-0.732-4.322
				c-0.586-0.878-1.468-1.243-2.564-1.243c-3.223,0.216-6.52,2.491-9.89,7.03c-3.37,4.836-5.201,9.451-5.569,13.627
				c0,2.637,0.808,4.396,2.492,5.128c1.904,0.51,4.03-0.146,6.373-2.126c2.49-2.343,4.909-5.933,7.325-10.62l0.443-0.514h2.636
				c0.219,0,0.368,0.148,0.368,0.367c-0.734,3.223-1.102,4.979-1.102,5.274c-0.365,2.123-0.221,3.882,0.222,5.419
				c0.513,1.466,1.391,2.199,2.636,2.271c2.126,0.219,4.54-1.392,7.327-4.687l0.218-0.149l0.144,0.294
				c0.148,2.343,0.811,3.807,1.982,4.323c1.173,0.365,2.343,0.146,3.591-0.44c0.732-0.441,1.754-1.173,3.075-2.417
				c0.146-0.073,0.292-0.073,0.368,0.073l0.438,1.392c0.146,0.585,0.44,1.026,0.805,1.321c0.954,0.51,2.124,0.365,3.736-0.368
				c3.59-1.904,6.813-5.787,9.598-11.576l0.217-0.949l-1.61,0.07l-2.416,3.81c-1.099,1.54-2.126,2.639-3.15,3.15
				c-0.443,0.148-0.659,0-0.732-0.22c-0.075-0.367,0.146-1.099,0.657-2.123l8.351-16.777c0.075-0.292,0.075-0.438,0-0.514
				l-5.053-0.07c-0.221,0-0.367,0.07-0.513,0.365l-0.44,0.436c-0.219,0.151-0.441,0.075-0.586-0.071l-0.583-0.365
				c-2.053-0.954-4.323-0.365-6.889,1.61c-2.124,1.832-4.396,4.617-6.592,8.206c-2.782,4.469-4.766,7.4-5.862,8.718
				c-0.951,0.953-1.681,1.318-2.268,1.026c-0.369-0.148-0.516-0.513-0.516-0.953c0.074-1.686,0.516-3.955,1.395-6.811l0.438-1.318
				c0.221-0.516,0.438-0.881,0.734-1.172l3.372-2.786c4.39-4.028,8.496-8.791,12.303-14.138l0.805-1.613h-0.144
				c-1.172,0.076-1.907,0.221-2.199,0.368c-3.882,5.349-7.399,9.52-10.622,12.378c-0.954,0.805-1.541,1.173-1.688,1.173
				c-0.071-0.073-0.144-0.148-0.144-0.292c0.366-1.027,1.392-3.15,2.931-6.446c3.883-7.545,7.692-13.481,11.28-17.657
				c1.687-1.976,3.151-3.15,4.25-3.661c0.511-0.073,0.878,0,1.027,0.148c0.07,0.071,0.07,0.438,0.07,1.097l-0.585,2.199
				c0,0.07,0,0.07,0.075,0.07C162.898,20.12,163.702,19.607,163.777,19.021L163.777,19.021z M150.004,56.014
				c2.196-5.419,4.542-9.229,6.886-11.574l1.173-1.024c0.512-0.295,0.951-0.368,1.463-0.148c0.22,0.148,0.295,0.513,0.149,1.172
				c-2.126,5.276-4.25,9.451-6.228,12.6c-1.248,1.686-2.199,2.71-2.86,3.075c-0.437,0.148-0.732,0.148-0.949-0.144
				c-0.293-0.293-0.367-0.88-0.293-1.904L150.004,56.014L150.004,56.014z M129.123,43.049c0.37,0.073,0.734,0.438,0.957,1.024
				c0.292,1.466-0.076,3.298-1.027,5.424c-0.219,0.292-0.438,0.292-0.878,0.071c-1.467-0.514-2.197-1.465-2.347-2.856
				c0.15-1.612,0.734-2.709,1.907-3.517C128.245,42.976,128.686,42.903,129.123,43.049L129.123,43.049z M123.412,49.203
				c0.073-0.076,0.292,0,0.512,0c1.025,1.316,2.2,2.27,3.516,2.856c0.295,0.148,0.295,0.44,0.073,0.88
				c-1.829,3.515-3.588,5.934-5.201,7.176c-0.659,0.294-1.169,0.294-1.538,0.221c-0.734-0.292-1.097-0.805-1.097-1.683
				c0-1.32,0.514-3.15,1.538-5.498C122.093,51.327,122.752,50.008,123.412,49.203L123.412,49.203z"/>
			<path fill-rule="evenodd" clip-rule="evenodd" fill="#EF1821" d="M172.787,16.238c0.368-0.732,0.514-1.321,0.586-1.759
				c-5.714,5.641-11.209,8.57-16.41,8.643l-0.368,0.221l-4.026,5.714c-0.148,0.365-0.148,0.513,0,0.586l1.829,0.073
				c3.883-0.073,7.62-1.391,11.064-4.101C168.759,23.049,171.174,19.899,172.787,16.238L172.787,16.238z"/>
			<path fill-rule="evenodd" clip-rule="evenodd" fill="#EF1821" d="M126.194,19.534c0.076-0.805,0.222-1.172,0.293-1.245
				c3.447-0.586,7.034,0.44,10.843,3.004l6.668,4.542c0.219,0.146,0.438,0.146,0.512,0l3.953-4.909c0.37-0.292,0.37-0.514,0-0.659
				c-3.953-2.491-6.516-4.028-7.616-4.614c-2.197-1.027-4.762-1.54-7.693-1.464c-2.708,0.146-5.274,0.729-7.692,1.683
				c-0.292,0.073-0.585,0-0.948-0.292c-1.175-1.028-2.789-1.391-4.985-1.099c-5.347,0.951-10.841,4.25-16.41,9.888
				c-4.323,4.322-8.128,9.964-11.5,16.999l-1.61,3.734c-2.492,7.251-2.786,12.819-0.955,16.628c1.246,2.712,3.297,4.104,6.228,4.396
				c5.714,0.441,10.841-2.858,15.457-10.109c2.782-4.906,3.957-9.01,3.517-12.452c-0.294-1.832-1.172-3.004-2.637-3.369
				c-2.785-0.66-5.568,0.654-8.351,3.88c-3.08,4.176-4.472,8.499-4.322,12.967l0.146,0.219c1.319-1.537,2.783-2.782,4.323-3.955
				l2.491-1.613c0.365-3.074,1.318-5.492,2.856-7.251c1.099-1.1,1.978-1.538,2.709-1.172c0.586,0.364,0.881,1.026,0.952,1.832
				l-0.216,2.272c-0.951,4.396-3.151,8.351-6.593,11.868c-3.226,2.707-5.938,3.515-8.061,2.416c-2.27-1.61-2.783-5.201-1.464-10.766
				c2.49-8.426,6.886-16.413,13.187-24.104c4.616-5.201,8.425-8.278,11.5-9.375l1.1,0.073c0.148,0.146,0.073,0.219-0.073,0.292
				c-3.078,2.345-5.423,4.982-7.033,7.84c-2.201,4.176-2.636,7.327-1.248,9.45c0.734,1.026,1.759,1.389,3.007,1.097
				c2.048-0.583,4.101-2.416,6.225-5.566C125.17,26.712,126.27,23.049,126.194,19.534L126.194,19.534z M123.119,20.339
				c0.147-0.219,0.438-0.292,0.732-0.292c0.073,0.146,0.149,0.805,0.149,2.051c-0.516,4.174-2.275,7.986-5.425,11.355
				c-1.243,0.954-2.27,1.318-2.929,1.169c-0.589-0.216-0.878-0.657-0.951-1.389c0.073-2.124,1.097-4.615,2.929-7.473
				C119.237,23.416,121.066,21.584,123.119,20.339L123.119,20.339z"/>
			<path fill-rule="evenodd" clip-rule="evenodd" fill="#EF1821" d="M64.954,28.984c-0.441-0.878-1.246-1.391-2.272-1.537
				c-2.197-0.222-4.32,0.511-6.444,2.196c-0.662,0.586-2.345,2.272-4.985,5.201c-1.61,1.465-3.223,2.27-5.054,2.27
				c-0.071,0-0.146-0.071-0.292-0.292c1.318-4.101,1.097-7.03-0.513-8.643c-1.097-0.88-2.416-1.1-3.956-0.731
				c-4.103,1.242-7.911,5.125-11.429,11.574c-1.317,2.709-2.196,5.273-2.636,7.618c-0.294,3.002,0.367,5.128,2.052,6.3
				c1.759,1.1,3.881,0.805,6.225-0.88c2.785-2.199,5.788-6.154,8.866-11.941l0.364-0.438l3.005-0.292
				c0.146,0,0.219,0.146,0.219,0.365c-1.17,2.71-1.905,4.688-2.124,6.079c-0.44,2.49-0.073,4.471,1.17,6.081
				c1.172,1.243,2.64,1.756,4.398,1.613c3.004-0.586,6.227-2.637,9.742-6.009c0.148-0.146,0.294-0.146,0.368,0l-0.074,2.272
				c0,0.951,0.147,1.683,0.44,2.196c0.365,0.805,1.022,1.319,1.902,1.54c1.833,0.219,3.958-0.805,6.449-3.007
				c0.073-0.071,0.22,0,0.366,0.076c0.367,1.464,0.732,2.345,1.099,2.637c0.365,0.294,1.1,0.438,2.124,0.367
				c3.223-0.808,6.52-3.809,9.89-9.01c1.464-2.71,2.2-4.177,2.27-4.25l-1.464-0.221c-0.292,0-0.658,0.221-1.026,0.659
				c-0.514,1.027-1.173,2.199-1.978,3.369c-1.464,1.759-2.491,2.858-3.221,3.226c-0.367,0.146-0.588,0.073-0.659-0.148l0.071-0.659
				l9.305-18.898l-0.146-0.148l-4.909-0.146c-0.219,0-0.659,0.294-1.318,0.954c-0.146,0.073-0.367,0-0.51-0.146l-0.514-0.294
				c-1.831-0.951-3.955-0.586-6.376,1.027c-2.124,1.61-4.392,4.031-6.516,7.327c-3.08,4.61-4.911,7.325-5.571,8.057
				c-2.345,2.564-4.542,4.174-6.374,4.909c-0.878,0.219-1.612,0-2.123-0.734c-0.44-0.657-0.44-1.905-0.073-3.661
				c0.951-3.077,2.343-6.081,4.174-8.864c2.126-3.077,3.882-4.981,5.495-5.568c0.44,0,0.805,0.146,1.027,0.365
				c0.073,0.44,0,0.661-0.37,0.734l-0.951,0.292c-1.756,1.245-2.492,2.709-2.124,4.396c0.149,0.44,0.44,0.734,0.881,0.88
				c0.731,0.219,1.537-0.075,2.416-0.805C65.54,33.602,66.125,31.256,64.954,28.984L64.954,28.984z M78.727,31.256
				c0.292,0.219,0.366,0.365,0.437,0.511c-0.071,0.44-0.292,1.318-0.878,2.785c-2.197,4.836-4.542,8.935-6.886,12.306
				c-0.952,1.024-1.686,1.54-2.197,1.54l-0.659-0.516c-0.149-0.584,0-1.683,0.51-3.442l0.735-1.832
				c2.563-5.42,5.2-9.083,7.764-11.061C78.067,31.326,78.505,31.256,78.727,31.256L78.727,31.256z M36.529,38.799l1.172-1.902
				l0.512-0.443l0.147,0.076c1.172,1.243,2.418,2.197,3.882,2.783c0.073,0.146,0.073,0.44-0.146,0.805
				c-1.686,3.299-3.443,5.714-5.348,7.327c-0.66,0.368-1.245,0.586-1.685,0.438c-0.513-0.144-0.879-0.584-1.025-1.318
				C34.04,44.662,34.919,42.096,36.529,38.799L36.529,38.799z M42.39,30.521c0.44-0.216,0.88-0.216,1.394,0
				c0.805,0.659,1.097,1.832,0.732,3.59c-0.294,0.954-0.586,1.832-0.954,2.564c-0.073,0.146-0.367,0.146-0.951,0.073
				c-1.465-0.586-2.272-1.537-2.418-2.783C40.193,32.426,40.926,31.256,42.39,30.521L42.39,30.521z"/>
			<path fill-rule="evenodd" clip-rule="evenodd" fill="#EF1821" d="M87.223,33.602c0.365,0,2.126,0,5.201,0
				c0.443,0,0.88-0.368,1.172-0.881l2.346-4.982l-0.146-0.146l-4.177-0.076c-0.951,0.076-1.464,0.222-1.686,0.514l-2.637,4.911
				C87.223,33.234,87.223,33.453,87.223,33.602L87.223,33.602z"/>
			<path fill-rule="evenodd" clip-rule="evenodd" fill="#EF1821" d="M25.688,23.416c-3.589,3.59-6.667,7.765-9.231,12.527
				c-1.319,2.418-2.27,4.542-2.928,6.373c-1.394,3.516-1.98,7.033-1.759,10.623c0.217,4.174,1.464,7.471,3.882,9.815
				c2.489,2.858,6.885,3.958,12.967,3.369c1.759-0.219,6.227-1.319,13.333-3.223c5.419-1.464,10.037-1.978,13.843-1.538
				c3.517,0.66,6.082,2.343,7.765,4.979l0.294,0.076c4.326-2.051,10.769-1.978,19.266,0.367c0.149,0,0.149,0,0.149-0.148
				c-2.126-3.223-5.86-6.006-10.988-8.205c-6.521-2.561-14.067-2.709-22.637-0.218l-11.282,3.368
				c-3.003,0.808-5.347,1.319-6.812,1.465c-2.784,0.218-5.055-0.146-6.958-1.1c-3.59-1.975-5.203-5.493-4.836-10.62
				c0.587-4.833,2.49-10.259,5.787-16.337c4.25-7.032,8.571-12.308,12.966-15.823c2.126-1.464,3.736-2.124,4.763-1.975
				c0.368,0.071,0.66,0.292,0.952,0.729c0.151,0.44,0.075,0.659-0.071,0.808c-0.881,0.146-1.686,0.511-2.42,1.318
				c-0.658,0.657-1.097,1.392-1.244,2.27c-0.22,1.1-0.074,1.832,0.366,2.272c0.367,0.292,0.732,0.511,1.1,0.511
				c2.27-0.365,3.588-1.978,4.247-5.053c0.44-2.196,0-3.809-1.319-4.763c-1.242-0.951-3.369-1.097-6.298-0.292
				C34.111,16.383,29.864,19.24,25.688,23.416L25.688,23.416z"/>
		</g>
	</g>
	<path fill="#EF1821" d="M195.57,21.295V21.29c-0.02,0-0.041,0.002-0.06,0.002c-0.021,0-0.04-0.002-0.061-0.002v0.005
		c-12.375,0.066-22.383,10.115-22.383,22.499c0,7.121,3.309,13.469,8.467,17.593c0.249,0.198,0.747,0.608,1.252,0.66
		c0.636,0.06,1.072-0.285,1.265-0.476c2.891-2.856,7.076-4.625,11.459-4.643c4.383,0.017,8.567,1.787,11.458,4.643
		c0.19,0.19,0.629,0.535,1.266,0.476c0.506-0.051,1.004-0.461,1.253-0.66c5.157-4.124,8.466-10.472,8.466-17.593
		C217.953,31.41,207.944,21.361,195.57,21.295z M193.003,51.936c0,0.508-0.121,0.894-0.362,1.152
		c-0.238,0.262-0.546,0.39-0.918,0.39s-0.675-0.133-0.905-0.4c-0.232-0.264-0.347-0.644-0.347-1.143V40.128
		c0-0.501,0.115-0.878,0.347-1.132c0.23-0.255,0.533-0.38,0.905-0.38s0.68,0.125,0.918,0.38c0.242,0.254,0.362,0.606,0.362,1.059
		V51.936z M192.767,36.18c-0.284,0.252-0.625,0.377-1.014,0.377c-0.405,0-0.752-0.124-1.041-0.373
		c-0.288-0.249-0.431-0.601-0.431-1.057c0-0.413,0.146-0.755,0.443-1.021c0.295-0.267,0.637-0.398,1.029-0.398
		c0.377,0,0.711,0.121,1.004,0.362c0.292,0.242,0.435,0.594,0.435,1.057C193.192,35.576,193.051,35.929,192.767,36.18z
		 M201.756,40.588c-0.213,0.206-0.513,0.307-0.897,0.307h-1.225v11.162c0,0.508-0.121,0.891-0.363,1.152
		c-0.241,0.257-0.548,0.388-0.918,0.388c-0.373,0-0.672-0.131-0.906-0.397c-0.232-0.266-0.347-0.646-0.347-1.142V40.895h-0.913
		c-0.431,0-0.757-0.101-0.977-0.307c-0.221-0.204-0.332-0.463-0.332-0.78c0-0.314,0.113-0.568,0.339-0.767
		c0.226-0.199,0.548-0.294,0.969-0.294h0.913v-3.561c0-0.5,0.115-0.878,0.347-1.132c0.234-0.254,0.533-0.38,0.906-0.38
		c0.37,0,0.677,0.125,0.918,0.38c0.242,0.254,0.363,0.606,0.363,1.059v3.633h1.164c0.425,0,0.745,0.095,0.958,0.294
		c0.216,0.199,0.325,0.453,0.325,0.767C202.082,40.125,201.973,40.384,201.756,40.588z"/>
</g>
</svg>
