<?xml version="1.0" encoding="utf-8"?>
<!-- Generator: Adobe Illustrator 16.0.0, SVG Export Plug-In . SVG Version: 6.00 Build 0)  -->
<!DOCTYPE svg PUBLIC "-//W3C//DTD SVG 1.1//EN" "http://www.w3.org/Graphics/SVG/1.1/DTD/svg11.dtd">
<svg version="1.1" id="Layer_1" xmlns="http://www.w3.org/2000/svg" xmlns:xlink="http://www.w3.org/1999/xlink" x="0px" y="0px"
	 width="248.93px" height="49.172px" viewBox="0 0 248.93 49.172" enable-background="new 0 0 248.93 49.172" xml:space="preserve">
<rect x="40.798" y="1.333" fill="none" width="167.334" height="46.505"/>
<g>
	<g>
		<g>
			<g>
				<path fill="#FFFFFF" d="M90.912,19.543h-4.441v-2.249h11.34v2.249h-4.444v14.484h-2.456V19.543z"/>
				<path fill="#FFFFFF" d="M96.865,22.115h2.316v1.262h0.048c0.764-0.941,1.764-1.411,3.003-1.411
					c0.925,0.015,1.733,0.32,2.424,0.914l-1.692,2.07c-0.49-0.399-0.998-0.599-1.524-0.599c-0.593,0-1.102,0.199-1.524,0.598
					c-0.475,0.391-0.72,1.023-0.735,1.896v7.182h-2.317V22.115L96.865,22.115z"/>
				<path fill="#FFFFFF" d="M110.964,32.971h-0.044c-0.214,0.405-0.547,0.704-1,0.895c-0.445,0.199-1.06,0.299-1.843,0.299
					c-1.29-0.016-2.282-0.367-2.978-1.057c-0.733-0.672-1.101-1.533-1.101-2.582c0-1.002,0.319-1.832,0.956-2.49
					c0.638-0.672,1.57-1.018,2.8-1.033h3.211v-1.256c0.016-1.053-0.773-1.564-2.368-1.533c-0.578,0-1.034,0.062-1.367,0.184
					c-0.348,0.147-0.623,0.393-0.823,0.738l-1.823-1.436c0.882-1.188,2.181-1.766,3.9-1.734c1.451-0.016,2.61,0.267,3.475,0.849
					c0.867,0.597,1.308,1.622,1.322,3.075v8.137h-2.317V32.971z M110.964,28.977h-2.782c-1.353,0.031-2.021,0.509-2.005,1.436
					c0,0.405,0.175,0.75,0.523,1.033c0.335,0.315,0.888,0.472,1.66,0.472c0.972,0.015,1.659-0.104,2.06-0.356
					c0.364-0.252,0.546-0.827,0.546-1.723L110.964,28.977L110.964,28.977z"/>
				<path fill="#FFFFFF" d="M114.334,22.115h2.454l2.711,8.349h0.044l2.698-8.349h2.465l-4.231,11.913h-1.911L114.334,22.115z"/>
				<path fill="#FFFFFF" d="M127.33,28.977c0,0.958,0.267,1.684,0.8,2.182c0.496,0.505,1.149,0.758,1.957,0.758
					c0.942,0,1.783-0.387,2.525-1.159l1.679,1.479c-1.178,1.301-2.563,1.943-4.155,1.927c-0.607,0-1.201-0.092-1.778-0.275
					c-0.288-0.1-0.569-0.233-0.843-0.402c-0.289-0.146-0.561-0.325-0.812-0.54c-0.489-0.443-0.884-1.064-1.189-1.858
					c-0.332-0.765-0.499-1.76-0.499-2.984c0-1.178,0.145-2.157,0.432-2.938c0.289-0.795,0.659-1.423,1.111-1.883
					c0.46-0.466,0.975-0.803,1.544-1.01c0.563-0.206,1.118-0.31,1.668-0.31c1.316,0.016,2.433,0.463,3.344,1.344
					c0.925,0.895,1.396,2.127,1.411,3.696v1.972H127.33z M132.209,27.004c-0.03-0.93-0.271-1.634-0.724-2.111
					c-0.445-0.454-1.018-0.679-1.716-0.679s-1.271,0.226-1.715,0.679c-0.438,0.477-0.681,1.181-0.724,2.111H132.209z"/>
				<path fill="#FFFFFF" d="M136.658,17.294h2.315v13.668c0,0.544,0.289,0.816,0.869,0.816h0.803v2.248h-1.033
					c-0.846,0-1.541-0.217-2.089-0.652c-0.578-0.441-0.865-1.185-0.865-2.229V17.294z"/>
				<path fill="#FFFFFF" d="M147.196,17.294h10.354v2.386h-7.899v4.949h6.742v2.247h-6.742v7.151h-2.454V17.294z"/>
				<path fill="#FFFFFF" d="M166.147,30.285H160l-1.245,3.742h-2.6l5.89-16.732h2.058l5.891,16.732h-2.59L166.147,30.285z
					 M165.447,28.038l-2.346-7.32h-0.044l-2.346,7.32H165.447z"/>
				<path fill="#FFFFFF" d="M180.131,32.714c-0.957,0.937-2.231,1.42-3.823,1.451c-1.274-0.031-2.337-0.353-3.189-0.964
					c-0.867-0.59-1.496-1.271-1.889-2.043c-0.119-0.252-0.227-0.493-0.322-0.724c-0.09-0.236-0.164-0.535-0.222-0.895
					c-0.112-0.672-0.166-1.966-0.166-3.879c0-1.943,0.054-3.244,0.166-3.902c0.117-0.658,0.299-1.19,0.545-1.595
					c0.392-0.773,1.022-1.461,1.889-2.066c0.852-0.612,1.916-0.926,3.188-0.942c1.289,0.015,2.363,0.33,3.223,0.942
					c0.852,0.604,1.467,1.294,1.845,2.066c0.274,0.405,0.462,0.937,0.566,1.595c0.096,0.658,0.144,1.958,0.144,3.902
					c0,1.737-0.037,2.95-0.111,3.638c-0.096,0.689-0.256,1.224-0.478,1.606l2.141,1.755l-1.459,1.746L180.131,32.714z
					 M176.045,29.353l1.459-1.737l1.894,1.553c0.154-0.568,0.234-1.737,0.234-3.508c0-1.647-0.056-2.771-0.167-3.37
					c-0.119-0.568-0.339-1.031-0.656-1.392c-0.246-0.345-0.572-0.633-0.982-0.862c-0.429-0.223-0.938-0.342-1.524-0.356
					c-0.578,0.015-1.076,0.134-1.491,0.356c-0.424,0.229-0.765,0.518-1.024,0.862c-0.319,0.36-0.531,0.824-0.635,1.392
					c-0.118,0.598-0.177,1.722-0.177,3.369c0,1.648,0.059,2.764,0.177,3.346c0.104,0.583,0.315,1.055,0.635,1.415
					c0.26,0.345,0.602,0.625,1.024,0.839c0.415,0.252,0.913,0.379,1.491,0.379c0.758,0,1.362-0.196,1.814-0.587L176.045,29.353z"/>
			</g>
			<g>
				<path fill="#FFFFFF" d="M74.366,13.19c-5.011,0-9.073,4.063-9.073,9.075c0,6.435,8.59,13.718,9.073,13.718
					c0,0,9.075-7.282,9.075-13.718C83.441,17.253,79.378,13.19,74.366,13.19z M74.366,29.438c-4.05,0-7.333-3.284-7.333-7.333
					c0-4.05,3.283-7.334,7.333-7.334c4.051,0,7.333,3.283,7.333,7.334C81.7,26.155,78.418,29.438,74.366,29.438z"/>
				<path fill="#FFFFFF" d="M76.133,23.501c0.585-2.34-0.468-4.096-0.703-4.623c-0.234-0.527-0.526-2.34-0.234-2.632
					c0.292-0.293-0.175-0.702-0.175-0.702h-0.644h-0.022h-0.643c0,0-0.469,0.409-0.176,0.702c0.293,0.292,0,2.105-0.234,2.632
					c-0.233,0.526-1.287,2.281-0.702,4.623c0.586,2.34,0.176,2.398-0.175,3.92c-0.351,1.521,1.93,1.58,1.93,1.58h0.021
					c0,0,2.283-0.059,1.932-1.58C75.957,25.899,75.549,25.842,76.133,23.501z"/>
			</g>
		</g>
	</g>
</g>
</svg>
