<?xml version="1.0" encoding="utf-8"?>
<!-- Generator: Adobe Illustrator 16.0.0, SVG Export Plug-In . SVG Version: 6.00 Build 0)  -->
<!DOCTYPE svg PUBLIC "-//W3C//DTD SVG 1.1//EN" "http://www.w3.org/Graphics/SVG/1.1/DTD/svg11.dtd">
<svg version="1.1" id="Layer_1" xmlns="http://www.w3.org/2000/svg" xmlns:xlink="http://www.w3.org/1999/xlink" x="0px" y="0px"
	 width="248.93px" height="49.172px" viewBox="0 0 248.93 49.172" enable-background="new 0 0 248.93 49.172" xml:space="preserve">
<rect x="40.798" y="1.333" fill="none" width="167.334" height="46.505"/>
<g>
	<g>
		<g>
			<g>
				<path fill="#FFFFFF" d="M84.428,18.568h-5.3v-2.683H92.66v2.683h-5.303v17.284h-2.93V18.568z"/>
				<path fill="#FFFFFF" d="M91.531,21.637h2.764v1.506h0.059c0.911-1.123,2.104-1.684,3.583-1.684
					c1.104,0.018,2.068,0.382,2.893,1.091l-2.019,2.47c-0.585-0.476-1.191-0.714-1.819-0.714c-0.707,0-1.314,0.238-1.818,0.713
					c-0.567,0.466-0.859,1.22-0.877,2.262v8.57h-2.765V21.637L91.531,21.637z"/>
				<path fill="#FFFFFF" d="M108.355,34.592h-0.053c-0.256,0.483-0.653,0.84-1.192,1.068c-0.531,0.237-1.265,0.357-2.2,0.357
					c-1.538-0.019-2.723-0.438-3.554-1.26c-0.875-0.803-1.312-1.83-1.312-3.081c0-1.196,0.38-2.186,1.14-2.971
					c0.761-0.803,1.874-1.214,3.342-1.232h3.831v-1.499c0.019-1.256-0.923-1.867-2.825-1.83c-0.689,0-1.233,0.074-1.631,0.219
					c-0.416,0.175-0.743,0.468-0.981,0.881l-2.176-1.714c1.052-1.417,2.603-2.107,4.653-2.07c1.731-0.019,3.114,0.319,4.146,1.013
					c1.034,0.712,1.561,1.936,1.577,3.669v9.71h-2.765V34.592z M108.355,29.825h-3.32c-1.613,0.037-2.41,0.607-2.392,1.713
					c0,0.483,0.209,0.896,0.624,1.232c0.399,0.375,1.059,0.563,1.98,0.563c1.16,0.018,1.979-0.124,2.458-0.425
					c0.434-0.301,0.651-0.987,0.651-2.056L108.355,29.825L108.355,29.825z"/>
				<path fill="#FFFFFF" d="M112.376,21.637h2.929l3.234,9.962h0.053l3.22-9.962h2.941l-5.049,14.215h-2.28L112.376,21.637z"/>
				<path fill="#FFFFFF" d="M127.884,29.825c0,1.142,0.318,2.01,0.954,2.603c0.593,0.604,1.371,0.905,2.336,0.905
					c1.124,0,2.128-0.461,3.013-1.383l2.004,1.766c-1.405,1.552-3.059,2.318-4.959,2.3c-0.725,0-1.433-0.11-2.122-0.329
					c-0.344-0.12-0.679-0.278-1.006-0.479c-0.345-0.174-0.668-0.388-0.969-0.644c-0.583-0.529-1.056-1.27-1.419-2.218
					c-0.397-0.912-0.597-2.1-0.597-3.561c0-1.405,0.173-2.574,0.517-3.505c0.345-0.95,0.786-1.698,1.325-2.246
					c0.549-0.557,1.163-0.958,1.843-1.205c0.672-0.247,1.334-0.37,1.989-0.37c1.572,0.019,2.903,0.553,3.99,1.603
					c1.104,1.068,1.667,2.539,1.684,4.411v2.354H127.884z M133.706,27.472c-0.036-1.11-0.324-1.95-0.864-2.519
					c-0.531-0.542-1.215-0.811-2.047-0.811c-0.833,0-1.517,0.27-2.047,0.811c-0.523,0.569-0.812,1.408-0.863,2.519H133.706z"/>
				<path fill="#FFFFFF" d="M139.014,15.885h2.764v16.31c0,0.649,0.346,0.974,1.037,0.974h0.958v2.683h-1.233
					c-1.008,0-1.838-0.26-2.491-0.778c-0.69-0.527-1.034-1.414-1.034-2.659V15.885z"/>
				<path fill="#FFFFFF" d="M151.588,15.885h12.354v2.848h-9.426v5.905h8.046v2.681h-8.046v8.533h-2.929V15.885z"/>
				<path fill="#FFFFFF" d="M174.201,31.386h-7.334l-1.486,4.465h-3.102l7.028-19.966h2.455l7.029,19.966h-3.091L174.201,31.386z
					 M173.366,28.705l-2.8-8.734h-0.053l-2.798,8.734H173.366z"/>
				<path fill="#FFFFFF" d="M190.888,34.285c-1.141,1.118-2.661,1.694-4.562,1.731c-1.52-0.037-2.789-0.42-3.806-1.15
					c-1.034-0.704-1.785-1.516-2.254-2.438c-0.142-0.301-0.27-0.588-0.385-0.863c-0.105-0.283-0.194-0.639-0.264-1.068
					c-0.134-0.803-0.198-2.346-0.198-4.629c0-2.318,0.064-3.87,0.198-4.656c0.14-0.785,0.357-1.42,0.649-1.903
					c0.469-0.922,1.221-1.744,2.254-2.465c1.017-0.73,2.286-1.104,3.806-1.123c1.538,0.018,2.819,0.393,3.845,1.123
					c1.017,0.721,1.75,1.544,2.201,2.465c0.327,0.483,0.552,1.118,0.676,1.903c0.114,0.785,0.172,2.337,0.172,4.656
					c0,2.072-0.044,3.52-0.133,4.341c-0.114,0.822-0.306,1.46-0.569,1.917l2.554,2.094l-1.74,2.083L190.888,34.285z M186.013,30.273
					l1.741-2.072l2.26,1.853c0.185-0.678,0.28-2.073,0.28-4.187c0-1.966-0.067-3.307-0.2-4.021c-0.142-0.678-0.404-1.23-0.783-1.661
					c-0.293-0.411-0.683-0.754-1.171-1.029c-0.513-0.266-1.12-0.408-1.819-0.425c-0.69,0.018-1.284,0.16-1.78,0.425
					c-0.506,0.274-0.912,0.618-1.223,1.029c-0.381,0.431-0.633,0.984-0.757,1.661c-0.141,0.713-0.212,2.054-0.212,4.02
					c0,1.967,0.071,3.298,0.212,3.993c0.124,0.696,0.377,1.259,0.757,1.688c0.31,0.412,0.718,0.746,1.223,1.001
					c0.496,0.301,1.09,0.453,1.78,0.453c0.902,0,1.625-0.234,2.165-0.701L186.013,30.273z"/>
			</g>
			<g>
				<path fill="#FFFFFF" d="M64.685,10.988c-5.979,0-10.827,4.848-10.827,10.828c0,7.678,10.251,16.369,10.827,16.369
					c0,0,10.828-8.689,10.828-16.369C75.513,15.835,70.665,10.988,64.685,10.988z M64.685,30.375c-4.833,0-8.751-3.918-8.751-8.75
					c0-4.833,3.917-8.752,8.751-8.752s8.751,3.918,8.751,8.752C73.436,26.458,69.519,30.375,64.685,30.375z"/>
				<path fill="#FFFFFF" d="M66.792,23.292c0.698-2.792-0.558-4.887-0.838-5.515c-0.279-0.629-0.628-2.792-0.279-3.142
					s-0.209-0.838-0.209-0.838h-0.769h-0.026h-0.768c0,0-0.559,0.489-0.21,0.838c0.35,0.349,0,2.513-0.279,3.142
					c-0.279,0.628-1.536,2.722-0.838,5.515s0.21,2.862-0.209,4.678c-0.419,1.815,2.304,1.886,2.304,1.886h0.025
					c0,0,2.724-0.071,2.305-1.886C66.583,26.153,66.095,26.084,66.792,23.292z"/>
			</g>
		</g>
	</g>
</g>
</svg>
