<?xml version="1.0" encoding="utf-8"?>
<!-- Generator: Adobe Illustrator 16.0.0, SVG Export Plug-In . SVG Version: 6.00 Build 0)  -->
<!DOCTYPE svg PUBLIC "-//W3C//DTD SVG 1.1//EN" "http://www.w3.org/Graphics/SVG/1.1/DTD/svg11.dtd">
<svg version="1.1" id="Layer_1" xmlns="http://www.w3.org/2000/svg" xmlns:xlink="http://www.w3.org/1999/xlink" x="0px" y="0px"
	 width="248.93px" height="49.172px" viewBox="0 0 248.93 49.172" enable-background="new 0 0 248.93 49.172" xml:space="preserve">
<g>
	<g>
		<g>
			<g>
				<path fill="#FFFFFF" d="M54.555,15.091h-8.938v-4.524h22.821v4.524h-8.942v29.147h-4.94V15.091z"/>
				<path fill="#FFFFFF" d="M66.532,20.268h4.661v2.54h0.099c1.537-1.894,3.55-2.84,6.042-2.84c1.863,0.031,3.489,0.645,4.878,1.84
					l-3.404,4.165c-0.985-0.802-2.008-1.204-3.067-1.204c-1.192,0-2.217,0.401-3.066,1.203c-0.956,0.786-1.449,2.058-1.479,3.815
					v14.452h-4.661L66.532,20.268L66.532,20.268z"/>
				<path fill="#FFFFFF" d="M94.905,42.114h-0.089c-0.432,0.814-1.103,1.416-2.012,1.801c-0.896,0.4-2.132,0.602-3.711,0.602
					c-2.594-0.031-4.591-0.738-5.992-2.125c-1.476-1.354-2.213-3.086-2.213-5.195c0-2.017,0.641-3.687,1.922-5.011
					c1.282-1.354,3.16-2.047,5.635-2.078h6.461V27.58c0.031-2.119-1.557-3.148-4.765-3.086c-1.163,0-2.08,0.124-2.75,0.37
					c-0.701,0.294-1.253,0.789-1.655,1.485l-3.669-2.89c1.773-2.39,4.39-3.553,7.847-3.491c2.92-0.031,5.252,0.539,6.993,1.709
					c1.743,1.201,2.632,3.264,2.66,6.188v16.375h-4.662V42.114z M94.905,34.076h-5.601c-2.72,0.062-4.064,1.023-4.033,2.889
					c0,0.815,0.353,1.511,1.053,2.079c0.674,0.633,1.785,0.949,3.34,0.949c1.957,0.029,3.338-0.209,4.146-0.717
					c0.731-0.508,1.098-1.665,1.098-3.467L94.905,34.076L94.905,34.076z"/>
				<path fill="#FFFFFF" d="M101.686,20.268h4.939l5.453,16.8h0.089l5.43-16.8h4.961l-8.514,23.971h-3.846L101.686,20.268z"/>
				<path fill="#FFFFFF" d="M127.838,34.076c0,1.926,0.537,3.389,1.608,4.39c1,1.018,2.313,1.525,3.94,1.525
					c1.895,0,3.588-0.777,5.08-2.333l3.38,2.978c-2.37,2.617-5.158,3.91-8.363,3.879c-1.222,0-2.415-0.186-3.578-0.555
					c-0.58-0.201-1.146-0.469-1.697-0.809c-0.581-0.293-1.126-0.654-1.634-1.086c-0.982-0.893-1.78-2.141-2.392-3.74
					c-0.671-1.538-1.007-3.54-1.007-6.004c0-2.37,0.291-4.341,0.872-5.911c0.581-1.602,1.326-2.864,2.234-3.788
					c0.926-0.939,1.962-1.616,3.108-2.032c1.133-0.416,2.25-0.624,3.354-0.624c2.651,0.031,4.896,0.932,6.729,2.703
					c1.863,1.802,2.812,4.281,2.84,7.438v3.969H127.838z M137.656,30.106c-0.061-1.872-0.547-3.288-1.458-4.247
					c-0.896-0.913-2.048-1.368-3.45-1.368c-1.405,0-2.558,0.456-3.452,1.368c-0.883,0.959-1.368,2.375-1.456,4.247H137.656z"/>
				<path fill="#FFFFFF" d="M146.607,10.567h4.661v27.505c0,1.094,0.583,1.643,1.749,1.643h1.615v4.523h-2.079
					c-1.699,0-3.1-0.438-4.202-1.312c-1.163-0.889-1.744-2.385-1.744-4.484V10.567z"/>
				<path fill="#FFFFFF" d="M167.813,10.567h20.834v4.802h-15.896v9.958h13.567v4.521h-13.567v14.39h-4.938V10.567z"/>
				<path fill="#FFFFFF" d="M205.947,36.708h-12.367l-2.507,7.529h-5.231l11.854-33.669h4.14l11.854,33.669h-5.212L205.947,36.708z
					 M204.538,32.186l-4.721-14.729h-0.09l-4.719,14.729H204.538z"/>
				<path fill="#FFFFFF" d="M234.086,41.596c-1.924,1.885-4.487,2.857-7.692,2.92c-2.562-0.062-4.703-0.709-6.418-1.939
					c-1.743-1.188-3.011-2.557-3.801-4.111c-0.238-0.508-0.455-0.993-0.648-1.455c-0.179-0.477-0.328-1.078-0.445-1.802
					c-0.226-1.354-0.335-3.957-0.335-7.807c0-3.909,0.109-6.526,0.335-7.852c0.236-1.324,0.604-2.395,1.096-3.21
					c0.79-1.555,2.058-2.94,3.801-4.157c1.714-1.231,3.854-1.863,6.417-1.894c2.594,0.03,4.755,0.662,6.483,1.894
					c1.715,1.216,2.951,2.603,3.712,4.157c0.552,0.815,0.931,1.886,1.14,3.21c0.193,1.324,0.291,3.941,0.291,7.852
					c0,3.495-0.075,5.936-0.224,7.321c-0.193,1.386-0.517,2.463-0.961,3.233l4.307,3.531l-2.935,3.512L234.086,41.596z
					 M225.865,34.832l2.938-3.495l3.81,3.125c0.312-1.143,0.473-3.495,0.473-7.06c0-3.316-0.113-5.576-0.337-6.78
					c-0.239-1.143-0.682-2.075-1.321-2.801c-0.493-0.693-1.15-1.272-1.974-1.735c-0.865-0.448-1.89-0.688-3.068-0.717
					c-1.165,0.03-2.166,0.27-3.002,0.717c-0.854,0.463-1.539,1.042-2.062,1.735c-0.643,0.726-1.066,1.659-1.275,2.801
					c-0.238,1.203-0.358,3.463-0.358,6.779c0,3.317,0.12,5.562,0.358,6.734c0.209,1.173,0.635,2.122,1.275,2.847
					c0.522,0.694,1.21,1.257,2.062,1.689c0.836,0.508,1.837,0.764,3.002,0.764c1.521,0,2.74-0.395,3.651-1.182L225.865,34.832z"/>
			</g>
			<g>
				<path fill="#FFFFFF" d="M21.261,2.309c-10.084,0-18.26,8.175-18.26,18.26c0,12.948,17.288,27.604,18.26,27.604
					c0,0,18.26-14.654,18.26-27.604C39.52,10.483,31.345,2.309,21.261,2.309z M21.261,35.002c-8.15,0-14.759-6.607-14.759-14.757
					c0-8.15,6.606-14.759,14.759-14.759c8.15,0,14.757,6.607,14.757,14.759C36.018,28.396,29.412,35.002,21.261,35.002z"/>
				<path fill="#FFFFFF" d="M24.815,23.058c1.177-4.709-0.941-8.242-1.413-9.301c-0.471-1.06-1.06-4.709-0.471-5.298
					c0.588-0.589-0.354-1.413-0.354-1.413h-1.296h-0.044h-1.295c0,0-0.941,0.824-0.354,1.413c0.589,0.589,0,4.238-0.471,5.298
					c-0.472,1.059-2.591,4.591-1.413,9.301s0.354,4.826-0.354,7.888c-0.706,3.061,3.885,3.18,3.885,3.18h0.044
					c0,0,4.592-0.119,3.886-3.18C24.463,27.883,23.638,27.768,24.815,23.058z"/>
			</g>
		</g>
	</g>
</g>
</svg>
