<?xml version="1.0" encoding="iso-8859-1"?>
<!-- Generator: Adobe Illustrator 16.0.0, SVG Export Plug-In . SVG Version: 6.00 Build 0)  -->
<!DOCTYPE svg PUBLIC "-//W3C//DTD SVG 1.1//EN" "http://www.w3.org/Graphics/SVG/1.1/DTD/svg11.dtd">
<svg xmlns="http://www.w3.org/2000/svg" xmlns:xlink="http://www.w3.org/1999/xlink" version="1.1" id="Capa_1" x="0px" y="0px" width="512px" height="512px" viewBox="0 0 611.999 611.999" style="enable-background:new 0 0 611.999 611.999;" xml:space="preserve">
<g>
	<path d="M312.809,6.809c-111.917,0-209.619,61.807-260.925,153.043c6.246-1.979,12.88-3.178,19.985-3.178   c20.036,0,39.353,9.472,57.603,27.921c11.392,3.872,23.381,7.439,36.067,10.547c-2.091,9.818-3.805,19.997-5.337,30.329   c24.702,43.335,13.851,71.003-6.562,94.859h0.818c0.351,14.246,1.356,28.098,2.718,41.688c7.77,10.033,18.964,22.961,34.902,39.248   c-4.968-25.488-8.164-52.637-8.941-80.936h115.34v83.027c-33.071,0.664-64.955,3.729-95.402,8.92   c10.299,10.111,19.256,18.33,27,24.988c22.161-2.818,45.137-4.545,68.402-5.027v8.746c9.865-6.129,21.28-10.373,35.366-10.373   c6.255,0,12.593,0.936,19.095,2.66c24.45,1.434,48.36,4.172,70.951,8.244c-2.926,9.834-6.186,19.223-9.687,28.207   c8.979,7.881,16.159,15.873,21.572,24.033c6.337-14.375,11.969-29.883,16.746-46.434c23.973,5.807,45.595,13.123,63.951,21.588   c-19.03,23.742-42.134,44.057-68.204,59.975c0.04,0.59,0.164,1.166,0.188,1.758c0.841,20.148-7.605,36.756-18.451,50.615   C536.896,535.572,611.999,429.4,611.999,306C611.999,141.024,477.783,6.809,312.809,6.809z M172.383,167.317   c-24.457-5.982-46.391-13.493-64.868-22.157c29.943-38.135,70.213-67.783,116.612-84.601   C202.372,87.389,184.575,124.021,172.383,167.317z M298.478,291.669h-115.34c0.875-31.868,4.661-62.432,10.784-90.62   c32.944,6.216,67.962,9.718,104.557,10.448L298.478,291.669L298.478,291.669z M298.478,182.608   c-33.732-0.695-66.936-3.837-97.512-9.423c18.311-63.173,48.983-110.473,84.634-126.741c4.263-0.444,8.557-0.777,12.878-1.011   V182.608L298.478,182.608z M534.741,168.898c22.356,36.057,36.192,77.915,38.633,122.771H471.166   c-0.842-34.168-4.709-66.61-11.082-96.528C488.299,188.229,513.569,179.306,534.741,168.898z M327.139,45.433   c4.322,0.234,8.617,0.567,12.882,1.011c35.654,16.269,66.33,63.57,84.64,126.745c-30.527,5.586-63.738,8.73-97.521,9.421V45.433z    M431.088,413.686c-32.714-6.066-68.043-9.578-103.949-10.322V320.33h115.35C441.584,353.236,437.568,384.742,431.088,413.686z    M327.139,291.669v-80.18c36.35-0.745,71.89-4.299,104.564-10.445c6.124,28.189,9.909,58.755,10.785,90.625H327.139z    M401.492,60.561c46.396,16.818,86.664,46.465,116.605,84.596c-18.478,8.661-40.403,16.171-64.859,22.157   C441.046,124.021,423.249,87.389,401.492,60.561z M533.363,445.25c-21.073-10.223-46.067-18.969-73.837-25.721   c6.717-30.648,10.772-64.018,11.64-99.199h102.208C570.885,366.086,556.517,408.709,533.363,445.25z M390.421,487.043   c-60.026-48.242-76.812-24.527-104.047,2.703c-19.014,19.021-67.132-20.699-108.68-62.25   c-41.55-41.555-81.264-89.666-62.251-108.684c27.238-27.233,50.945-44.028,2.691-104.037   c-48.239-60.033-80.395-13.943-106.779,12.441c-30.459,30.448-1.605,143.92,110.541,256.082   c112.161,112.148,225.631,140.984,256.073,110.547C404.347,567.459,450.448,535.307,390.421,487.043z" fill="#FFFFFF"/>
</g>
<g>
</g>
<g>
</g>
<g>
</g>
<g>
</g>
<g>
</g>
<g>
</g>
<g>
</g>
<g>
</g>
<g>
</g>
<g>
</g>
<g>
</g>
<g>
</g>
<g>
</g>
<g>
</g>
<g>
</g>
</svg>
